# xmcd
#
# Track frame offsets: 
#        225
#        18542
#        36890
#
# Disc length: 726 seconds
#
# Revision: 2
# Processed by: cddbd v1.5.2PL0 Copyright (c) Steve Scherf et al.
# Submitted via: ExactAudioCopy v1.0b3
#
DISCID=1e02d303
DTITLE=Ol' Dirty Bastard - Got Your Money
DYEAR=1999
DGENRE=Rap
TTITLE0=Got Your Money (Amended Version)
TTITLE1=Got Your Money (Original Version)
TTITLE2=Rollin' Wit You (Original Version)
EXTD=
EXTT0=
EXTT1=
EXTT2=
PLAYORDER=
